<svg id="_x33_0" enable-background="new 0 0 64 64" height="512" viewBox="0 0 64 64" width="512" xmlns="http://www.w3.org/2000/svg"><g><g><path d="m25 37h-12c-1.103 0-2 .897-2 2v5h5l1.149-1.149c.545-.545 1.284-.851 2.055-.851 1.101 0 2.107.622 2.599 1.607l.197.393h1c1.657 0 3 1.343 3 3s-1.343 3-3 3h-12v5c0 1.103.897 2 2 2h12c1.103 0 2-.897 2-2v-16c0-1.103-.897-2-2-2z" fill="#f0bc5e"/></g><g><path d="m25 37h-12c-1.103 0-2 .897-2 2v5h5l1.149-1.149c.545-.545 1.284-.851 2.055-.851 1.101 0 2.107.622 2.599 1.607l.197.393h1c1.657 0 3 1.343 3 3s-1.343 3-3 3h-12v5c0 1.103.897 2 2 2h12c1.103 0 2-.897 2-2v-16c0-1.103-.897-2-2-2z" fill="#f0bc5e"/></g><g><path d="m49 28v4h4v8h4v-12z" fill="#f0bc5e"/></g><g><path d="m33 12h4v4h-4z" fill="#f0bc5e"/></g><g><path d="m22.789 18.658.105-.211-1.789-.895-.105.212c-.381.762-1.147 1.236-2 1.236s-1.619-.474-2-1.236l-.105-.211-1.789.895.105.211c.722 1.444 2.174 2.341 3.789 2.341s3.067-.897 3.789-2.342z"/><path d="m63 7v-2c0-1.103-.897-2-2-2h-31.54c-1.1-1.224-2.689-2-4.46-2h-10c-4.411 0-8 3.589-8 8 0 1.244.331 2.681.657 3.814-.413.629-.657 1.379-.657 2.186 0 2.206 1.794 4 4 4h.263c.524 2.024 1.819 3.736 3.555 4.807l-.662 3.311-4.677.72c-4.913.755-8.479 4.912-8.479 9.884v7.278c0 3.309 2.691 6 6 6v12h24v-12h30c1.103 0 2-.897 2-2v-2c0-1.103-.897-2-2-2v-36c1.103 0 2-.897 2-2zm-2-2v2h-30c0-.702-.128-1.373-.35-2zm-52 10c0-1.103.897-2 2-2h.01c-.001.042-.01.081-.01.123v3.877c-1.103 0-2-.897-2-2zm2.488-4h-.488c-.594 0-1.152.138-1.659.371-.183-.766-.341-1.635-.341-2.371 0-3.309 2.691-6 6-6h10c2.206 0 4 1.794 4 4s-1.794 4-4 4h-6.09c-1.054 0-1.91-.856-1.91-1.91v-.15c0-1.07.856-1.94 1.985-1.94 1.112 0 2.015.897 2.015 2h2c0-2.206-1.801-4-4.09-4-1.905 0-3.491 1.382-3.836 3.201l-.286.071c-1.496.375-2.676 1.403-3.3 2.728zm15.512 2c1.103 0 2 .897 2 2s-.897 2-2 2zm-14 4v-3.877c0-1.35.899-2.521 2.192-2.884.495 1.593 1.965 2.761 3.718 2.761h6.09v4c0 3.309-2.691 6-6 6s-6-2.691-6-6zm9.78 12h.166l2.32.232-2.785 5.57-.46-2.761zm-3.78-4c.804 0 1.579-.122 2.311-.344l.469 2.344h-5.56l.469-2.344c.732.222 1.507.344 2.311.344zm1.72 4-.5 2h-2.439l-.5-2zm-5.644 0h.144l.76 3.041-.46 2.761-2.726-5.451zm13.924 32h-20v-10h14c2.206 0 4-1.794 4-4s-1.794-4-4-4h-.386c-.691-1.238-1.982-2-3.41-2-1.044 0-2.024.406-2.763 1.145l-.855.855h-6.586v-8h-2v8.586l-1.707 1.707 1.414 1.414 1.707-1.707h6.586v4h-8c-2.206 0-4-1.794-4-4v-7.278c0-3.978 2.853-7.303 6.784-7.907l.933-.144 3.665 7.329h2.799l.667-4h2.306l.667 4h2.798l3.777-7.555 1.953.195c2.062.206 4.003 1.126 5.469 2.592l4.182 4.182v2.586h2v-12h4v14.559c0 1.897-1.544 3.441-3.441 3.441-.778 0-1.542-.268-2.15-.755l-8.409-6.726v-2.519h-2zm-12-16.586.855-.855c.36-.36.839-.559 1.349-.559.727 0 1.38.404 1.705 1.053l.472.947h1.619c1.103 0 2 .897 2 2s-.897 2-2 2h-6zm28-19.414h-4.586l-.855-.855c-.361-.361-.559-.839-.559-1.349 0-.727.404-1.38 1.053-1.705l.947-.472v-1.619c0-1.103.897-2 2-2s2 .897 2 2zm-14 15.081 6.15 4.919h-6.15zm30 8.919h-30v-2h30zm-2-4h-13.231c.768-.938 1.231-2.137 1.231-3.441v-22.559c0-2.206-1.794-4-4-4s-4 1.794-4 4v.386c-1.238.691-2 1.982-2 3.41 0 1.044.406 2.024 1.145 2.763l.855.855v7.172l-2.769-2.769c-1.791-1.791-4.165-2.916-6.684-3.168l-5.712-.571-.655-3.271c1.737-1.071 3.031-2.783 3.555-4.807h.265c2.206 0 4-1.794 4-4 0-1.501-.841-2.796-2.067-3.48.771-.672 1.367-1.537 1.716-2.52h28.351z"/><path d="m49 31h8v2h-8z"/><path d="m49 27h8v2h-8z"/><path d="m53 35h4v2h-4z"/><path d="m53 39h4v2h-4z"/><path d="m33 11h8v2h-8z"/><path d="m33 15h4v2h-4z"/></g></g></svg>